<?xml version="1.0" encoding="utf-8"?>
<!-- Generator: Adobe Illustrator 25.2.3, SVG Export Plug-In . SVG Version: 6.00 Build 0)  -->
<svg version="1.1" id="Layer_1" xmlns="http://www.w3.org/2000/svg" xmlns:xlink="http://www.w3.org/1999/xlink" x="0px" y="0px"
	 viewBox="0 0 217.1 144" style="enable-background:new 0 0 217.1 144;" xml:space="preserve">
<style type="text/css">
	.st0{fill:#6D6E71;}
	.st1{fill:#9A66AB;}
	.st2{fill:#A5CF4F;}
	
		.st3{fill-rule:evenodd;clip-rule:evenodd;fill:#F8971F;stroke:#F8971F;stroke-width:2;stroke-linecap:round;stroke-linejoin:round;}
</style>
<path class="st0" d="M0,68.5l8-5c2.2,3.7,6.2,6,10.5,6c3.3,0,5.8-1,5.8-3.4s-3.2-3.5-7.1-4.5c-6.5-1.6-15.2-3.3-15.2-12.3
	c0-8.1,6.2-12.6,15.2-12.6c6.5-0.2,12.7,2.7,16.7,7.8l-7.2,5.9c-2.2-2.7-6.1-5-9.5-5c-3.1,0-4.6,1-4.6,2.9c0,2.6,3.1,3.6,7.1,4.6
	c6.5,1.6,15.3,3.6,15.3,12.5C34.7,71.7,30.3,78,18,78C8.8,78,3.4,73.9,0,68.5z"/>
<path class="st0" d="M38.4,77.2V37.3h28.5v9H49.1v6.5h12.6v8.4H49.1v7.4h18.6v8.7H38.4z"/>
<path class="st0" d="M81.8,77.2v-31H70.4v-8.9h33.8v9H92.6v31L81.8,77.2z"/>
<path class="st0" d="M98.7,77.2l9.7-14.9l-9-14h11.1l4,6.7l3.6-6.7h10.7l-9.2,14.1l9.5,14.8H118l-4.4-7.4l-4.2,7.4H98.7z"/>
<path class="st0" d="M-0.1,101.5V90.7h4.9v10.8c0,2.5,0.8,3.6,2.8,3.6s2.8-1.1,2.8-3.6V90.7h4.8v10.9c0,4.8-2.3,7.6-7.6,7.6
	S-0.1,106.3-0.1,101.5z"/>
<path class="st0" d="M18.6,108.8V90.7h7.1c4.7,0,7.5,1.5,7.5,5.9c0,2.8-1.2,4.5-3.6,5.3l3.8,6.9h-5.2l-3.5-6.3h-1.4v6.3H18.6z
	 M23.4,98.8h2.1c2,0,2.9-0.6,2.9-2.1s-0.9-2.1-2.9-2.1h-2.2L23.4,98.8z"/>
<path class="st0" d="M36.7,108.8V90.7h7.6c3,0,6.6,0.5,6.6,4.5c0.1,2.1-1.4,3.9-3.4,4.2l0,0c2.2,0.4,3.9,1.4,3.9,4.5
	c0,4-3.7,5-6.7,5L36.7,108.8z M41.5,97.9h2.3c1.8,0,2.4-0.7,2.4-1.7s-0.7-1.7-2.4-1.7h-2.4L41.5,97.9z M41.5,105.2H44
	c1.8,0,2.6-0.7,2.6-2s-0.8-1.9-2.7-1.9h-2.4L41.5,105.2z"/>
<path class="st0" d="M52.8,108.8l6.4-18.2h4.6l6.4,18.2h-5l-1.1-3.4h-5.7l-1.2,3.4H52.8z M59.6,102H63l-1.7-5l0,0L59.6,102z"/>
<path class="st0" d="M72.6,108.8V90.7h4.8l6.7,10.2l0,0V90.7h4.5v18.2h-4.5l-6.9-10.2l0,0v10.2H72.6z"/>
<path class="st0" d="M100.2,108.8V90.7h4.9v18.2H100.2z"/>
<path class="st0" d="M109.1,108.8V90.7h12.5v4.1H114v3.6h5.3v3.8H114v6.6L109.1,108.8z"/>
<path class="st0" d="M124.2,108.8V90.7h4.9v14.2h7.6v4L124.2,108.8z"/>
<path class="st0" d="M132.5,85.6H1c-0.8,0-1.4-0.6-1.4-1.4c0-0.8,0.6-1.4,1.4-1.4l0,0h131.4c0.8,0,1.4,0.6,1.4,1.4
	C133.9,85,133.2,85.6,132.5,85.6z"/>
<path class="st1" d="M184.5,101c0,0.1,0,0.1,0,0.2v0.2c0,0.1,0,0.1,0.1,0.2l0.4,1.2c0.1,0.5,0.3,1.1,0.4,1.7
	c0.1,0.3,0.1,0.7,0.2,1.1l-0.2,0.1l-0.1,0.1l-0.8-0.6c-0.1-0.1-0.1-0.1-0.2-0.1l-0.4-0.1c-0.1,0-0.2-0.1-0.3-0.1l-1.3-0.1h-0.9
	l-1-0.8h-0.1l-0.1-0.1h-0.1l-1.8-0.9h-0.1h-0.1l-0.8-0.3l-0.6-1.4c-0.2-0.5-0.5-1.1-0.7-1.6l-0.1-0.1c-0.2-1.3-0.5-2.5-0.8-4
	c0-0.1,0-0.2-0.1-0.3l-0.2-0.4c-0.1-0.1-0.1-0.2-0.2-0.2l-2.1-2.1l-1.3-1.7c-0.4-0.8-0.7-1.6-1.1-2.5s-0.6-1.6-1-2.6l-0.1-0.1
	l-0.1-0.2l-0.1-0.1l-1.4-1.9c0,0,0-0.1-0.1-0.1l-0.1-0.1l0,0l-1.7-1.7l-1.2-1.6c-0.2-0.2-0.5-0.4-0.8-0.3h-0.1l-1,0.1l-0.4-0.2h-0.2
	h-0.3h-0.2l-0.8,0.1h-0.2l-0.1-0.1c-0.1-0.1-0.2-0.1-0.3-0.2l-0.4-0.2c-0.1,0-0.2-0.1-0.4-0.1h-0.9c-0.3,0-0.6,0.1-0.8,0.4l-0.3,0.4
	l-0.8,0.2c-0.3,0.1-0.5,0.3-0.6,0.6l-1.2,2.8v0.1v0.1l-0.2,0.6l-0.4,0.5l0,0l-1-0.8H153l-1.3-0.8c-0.1,0-0.1-0.1-0.2-0.1l-0.3-0.1
	c-0.1,0-0.1,0-0.2-0.1h-0.5l-1.4-1.3l-1.3-1.7l-0.1-0.3V78c0-0.1,0-0.2,0-0.3l-0.1-0.4c0-0.1-0.1-0.2-0.1-0.3
	c-0.5-0.7-0.9-1.3-1.3-2c0,0,0-0.1-0.1-0.1l-0.1-0.1l-0.1-0.1l-0.6-0.7c0,0-0.1-0.1-0.1-0.1l-0.2-0.2c-0.1,0-0.1-0.1-0.2-0.1
	l-0.7-0.4l-1.2-1.1c-1-1-1.9-1.9-3.1-2.9l-0.9-1l-0.1-0.3h16.6c0.6,0,1-0.4,1-1v-29h13.7v11.7c0,0.5,0.3,0.9,0.8,1l0.5,0.1l0.6,0.7
	c0.1,0.1,0.1,0.1,0.2,0.2l0.3,0.2l0.2,0.1l0.3,0.1c0.1,0,0.2,0,0.3,0h0.4c0.1,0,0.2,0,0.3-0.1l0.4-0.1h0.2l0.4,0.7
	c0.1,0.3,0.4,0.4,0.7,0.5c0.8,0.1,1.5,0.3,2.2,0.5l1.3,0.3h0.2h0.4c0.1,0,0.2,0,0.3,0l0.6-0.2l0.1,0.1l1,1.4
	c0.2,0.3,0.5,0.4,0.8,0.4c0.1,0,0.2,0,0.3,0l1.4-0.5l1.9,0.5h0.2h0.4c0.1,0,0.2,0,0.2,0l0.8-0.2l0.9,0.1l1.6,0.9
	c0.2,0.1,0.3,0.1,0.5,0.1c0.2,0,0.3,0,0.5-0.1l1.5-0.8l1.4-0.1h0.1h0.2c0,0,0.1,0,0.1,0l0.7-0.2l0.4,0.1c0.1,0,0.2,0,0.3,0l0,0h0.4
	c0.1,0,0.2,0,0.3,0l0.5-0.2l3.4,2h0.1h0.1l0.1,0l0.3,0.1l0.2,0h0.2h0.2h0.2V67c0,0.5,0.3,0.9,0.8,1l0.3,0.1l0.1,0.2l0.1,1
	c0,0.1,0,0.2,0.1,0.2l0.1,0.3c0,0.1,0.1,0.2,0.1,0.2l0.7,0.8c0.1,0.4,0.2,0.8,0.3,1.2s0.1,0.7,0.2,1.1l-0.1,0.4l-0.5,0.9
	c0,0,0,0.1-0.1,0.1l-0.1,0.2V75l-0.3,0.9V76v0.2v0.2l0.1,1.5c0,0,0,0,0,0.1v0.1c0,0,0,0.1,0,0.1v0.2h3.4l-0.2-0.8l-0.1-1l0.1-0.5
	l0.2-0.3c0.3-0.4,0.5-0.9,0.6-1.4l0.1-0.2c0.1-0.2,0.1-0.4,0.1-0.6c0-0.2,0-0.4,0-0.5c0,0,0,0,0-0.1v-0.1c-0.1-0.4-0.2-0.9-0.3-1.4
	s-0.2-0.9-0.3-1.4c0-0.1-0.1-0.3-0.1-0.4c-0.1-0.1-0.1-0.2-0.2-0.4l-0.5-0.8l-0.1-0.8c0-0.1,0-0.3-0.1-0.4c0-0.1-0.1-0.3-0.2-0.4
	l-0.5-1c-0.1-0.2-0.2-0.4-0.4-0.6v-9.5c0-1.1-0.9-2-2-2h-1.3l-3.7-2.2c-0.2-0.2-0.5-0.2-0.8-0.3h-0.2c-0.2,0-0.4,0-0.6,0.1l-0.6,0.2
	l-0.3-0.1l0,0c-0.2,0-0.3-0.1-0.5-0.1h-0.1c-0.2,0-0.4,0-0.6,0.1h-0.1l-0.8,0.3l-1.5,0.1h-0.3H192c-0.1,0-0.2,0.1-0.4,0.2l-0.6,0.3
	l-0.7-0.4c-0.1-0.1-0.2-0.1-0.3-0.2c-0.1,0-0.3-0.1-0.4-0.1l-1.4-0.2h-0.3h-0.1c-0.2,0-0.3,0-0.5,0.1l-0.7,0.2l-2.6-0.4h-0.1h-0.2
	l-0.1-0.2c-0.1-0.1-0.2-0.2-0.3-0.3c-0.1-0.1-0.2-0.2-0.4-0.3l-0.9-0.6c-0.2-0.1-0.5-0.2-0.8-0.3H181c-0.2,0-0.4,0-0.6,0.1l-0.7,0.2
	l-0.7-0.2c-0.6-0.2-1-0.3-1.5-0.4l-0.3-0.5c-0.2-0.3-0.4-0.6-0.8-0.8c-0.3-0.2-0.6-0.2-0.9-0.2h-0.2c-0.4,0-0.9,0.1-1.3,0.2
	l-0.3-0.3l-0.1-0.1V36.4c0-0.5-0.2-1-0.6-1.4c-0.4-0.4-0.9-0.6-1.4-0.6h-17.2c-0.6,0-1,0.4-1,1c-0.2,0.3-0.3,0.7-0.3,1.1v0.1v27.9
	h-17.1c-0.5,0-1,0.2-1.4,0.6c-0.4,0.4-0.6,0.9-0.6,1.4v0.6c0,0.3,0.1,0.5,0.1,0.7c0,0,0,0.1,0.1,0.1c0.1,0.2,0.2,0.4,0.4,0.6
	l0.7,0.7c0.1,0.1,0.2,0.2,0.3,0.2c0.1,0.1,0.3,0.2,0.4,0.2h0.1v0.1c0,0.1,0.1,0.1,0.1,0.2v0.1l0.1,0.2l1.2,1.2
	c0.4,0.4,0.8,0.8,1.3,1.2l0.5,0.4c1.1,1.1,1.9,1.9,2.8,2.7l0.2,0.2h0.1l0.2,0.1l0.7,0.3l0.3,0.3c0.3,0.6,0.6,1.2,1,1.8V80
	c0,0.1,0,0.3,0,0.4c0,0.1,0.1,0.3,0.1,0.4v0.1l0.2,0.5l0.1,0.2l0,0l0.1,0.2l0.1,0.1l1.9,2.5c0.1,0.2,0.3,0.3,0.5,0.4l1,1
	c0.1,0.2,0.3,0.3,0.5,0.4h0.1c0.2,0.1,0.4,0.2,0.6,0.2l0.5,0.1l0.8,0.5l1.7,1.3c0.2,0.1,0.4,0.2,0.6,0.3h0.1c0.2,0,0.3,0.1,0.5,0.1
	h0.7c0.3,0,0.6-0.1,0.9-0.2c0.3-0.2,0.5-0.4,0.7-0.7l0.4-0.6l0.5-0.6c0.1-0.1,0.2-0.2,0.2-0.3c0.1-0.1,0.1-0.3,0.2-0.4l0.2-0.7
	l0.8-1.8h0.1c0.2,0,0.3-0.1,0.5-0.2l0.3,0.1c0.2,0.1,0.4,0.1,0.6,0.1h0.3l0.7-0.1h0.1h0.4l0.4,0.1l0.4,0.1h0.5l0.4,0.4l0,0
	c0.4,0.4,0.8,0.8,1.2,1.2l0.6,0.5l1.3,1.6c0.3,0.9,0.6,1.7,1,2.5c0.4,1,0.8,1.8,1.2,2.7c0,0.1,0.1,0.2,0.1,0.2c0.3,0.5,0.7,1,1,1.4
	l0.5,0.7l0,0c0.5,0.5,1,1,1.5,1.5l0.5,0.4l0.3,1.7l0.3,1.9c0,0.1,0,0.2,0,0.2v0.1c0,0.1,0,0.1,0.1,0.2l0.9,1.9l0.8,1.9
	c0.1,0.2,0.3,0.5,0.4,0.7c0.2,0.2,0.4,0.3,0.7,0.4l1.2,0.5l1.6,0.8l1.3,1c0.1,0.1,0.3,0.2,0.5,0.2h0.1c0.2,0.1,0.4,0.1,0.6,0.1h1.1
	l0.8,0.1h0.1c0.3,0.2,0.6,0.5,0.9,0.7l0.7,0.5c0.3,0.2,0.6,0.3,1,0.3c0.1,0,0.2,0,0.4,0c0.5-0.1,0.9-0.3,1.2-0.7
	c0,0,0.1-0.1,0.1-0.1l0.1-0.1h0.1c0.5,0,1-0.3,1.3-0.6c0.3-0.3,0.5-0.8,0.5-1.3v-0.3c0-0.2,0-0.4,0-0.7c0,0,0-0.1,0-0.1
	c-0.1-0.6-0.2-1.2-0.3-1.9s-0.3-1.3-0.4-1.9v-0.1c0,0,0-0.1,0-0.1l-0.4-1v-2v-0.1l-1.8,0.3L184.5,101z"/>
<path class="st2" d="M203.9,78.2V78c0,0,0,0,0-0.1l-0.1-1.5v-0.1v-0.2v-0.2L204,75v-0.1l0.1-0.2c0,0,0-0.1,0.1-0.1l0.5-0.9l0.1-0.4
	c-0.1-0.4-0.1-0.8-0.2-1.1s-0.1-0.8-0.1-1.2l-0.6-0.9c0-0.1-0.1-0.2-0.1-0.2l-0.1-0.3c0-0.1,0-0.2-0.1-0.2l-0.1-1l-0.1-0.2L203,68
	c-0.5-0.1-0.8-0.5-0.8-1v-9.6h-0.2h-0.2h-0.2l-0.2,0l-0.3-0.1l-0.1,0h-0.1h-0.1l-3.4-2l-0.5,0.2c-0.1,0-0.2,0-0.3,0h-0.4l0,0
	c-0.1,0-0.2,0-0.3,0l-0.4-0.1l-0.7,0.2c0,0-0.1,0-0.1,0h-0.2h-0.1l-1.4,0.1l-1.5,0.8c-0.1,0.1-0.3,0.1-0.5,0.1c-0.2,0-0.4,0-0.5-0.1
	l-1.6-0.9l-0.9-0.1l-0.8,0.2c-0.1,0-0.2,0-0.2,0h-0.4h-0.2l-1.9-0.5l-1.4,0.5c-0.1,0-0.2,0.1-0.3,0c-0.3,0-0.6-0.2-0.8-0.4l-1-1.4
	l-0.1-0.1l-0.6,0.2c-0.1,0-0.2,0-0.3,0h-0.4h-0.2l-1.3-0.3c-0.8-0.2-1.5-0.4-2.2-0.5c-0.3-0.1-0.5-0.2-0.7-0.5l-0.4-0.7h-0.2
	l-0.4,0.1c-0.1,0-0.2,0.1-0.3,0.1h-0.4c-0.1,0-0.2,0-0.3,0l-0.3-0.1l-0.2-0.1l-0.3-0.2c-0.1,0-0.1-0.1-0.2-0.2l-0.6-0.7l-0.5-0.1
	c-0.5-0.1-0.8-0.5-0.8-1V37.8h-13.8v29c0,0.6-0.4,1-1,1h-16.7l0.1,0.3l0.9,1c1.2,1,2.1,1.9,3.1,2.9l1.2,1.1l0.7,0.4
	c0.1,0,0.1,0.1,0.2,0.1l0.2,0.2c0.1,0,0.1,0.1,0.1,0.1l0.6,0.7l0.1,0.1l0.1,0.1c0,0,0.1,0.1,0.1,0.1c0.4,0.7,0.8,1.4,1.2,2.1
	c0.1,0.1,0.1,0.2,0.1,0.3l0.1,0.4c0,0.1,0,0.2,0,0.3v1.7l0.1,0.3l1.3,1.7l1.5,1.4h0.5c0.1,0,0.1,0,0.2,0.1l0.3,0.1
	c0.1,0,0.1,0.1,0.2,0.1l1.3,0.8h0.1l1,0.8l0,0l0.4-0.5l0.2-0.6v-0.1v-0.1l1.2-2.8c0.1-0.3,0.3-0.5,0.6-0.6l0.8-0.2l0.3-0.4
	c0.2-0.2,0.5-0.4,0.8-0.4h0.9c0.1,0,0.2,0,0.4,0.1l0.4,0.2c0.1,0,0.2,0.1,0.3,0.2l0.1,0.1h0.2l0.8-0.1h0.2h0.3h0.2l0.4,0.2l1-0.1
	h0.1c0.3,0,0.6,0.1,0.8,0.3l1.2,1.3l1.7,1.7l0,0l0.1,0.1c0,0,0,0,0.1,0.1L169,85l0.1,0.1l0.1,0.2l0.1,0.1c0.4,1,0.7,1.8,1,2.6
	s0.7,1.6,1.1,2.5l1.3,1.7l2.1,2.1c0.1,0.1,0.1,0.1,0.2,0.2l0.2,0.4c0,0.1,0.1,0.2,0.1,0.3c0.3,1.5,0.6,2.7,0.8,4l0.1,0.1
	c0.2,0.6,0.5,1.1,0.7,1.6l0.6,1.4l0.8,0.3h0.1h0.1l1.8,0.9h0.1l0.1,0.1h0.1l1,0.8h1.1l1.3,0.1c0.1,0,0.2,0,0.3,0.1l0.4,0.1
	c0.1,0,0.2,0.1,0.2,0.1l0.8,0.6l0.1-0.1l0.2-0.1c-0.1-0.4-0.1-0.7-0.2-1.1c-0.1-0.6-0.2-1.2-0.4-1.7l0.9-1.3c0,0,0.5-0.1-0.3-0.2
	l0.3-0.3c0-0.1-0.3-0.8-0.3-0.8v-1.2l0,0l0.4,1.3c0,0.2-0.5,0.4-0.5,0.6l-1.3,1.4c0,0.2-0.5,0.4-0.4,0.6l-0.9,0.3h-0.4h-0.4
	l-0.5-0.4l-0.2-0.1l-0.1-0.1l-0.2-0.1l-1.8-0.9c-0.1,0-0.1-0.1-0.2-0.1h-0.1l0,0l0,0l0,0l-0.3-0.6l-0.7-1.5
	c-0.2-1.2-0.5-2.4-0.7-3.8c-0.1-0.3-0.2-0.6-0.3-0.8l-0.2-0.4c-0.1-0.3-0.3-0.5-0.5-0.7l-2-2l-1.1-1.4c-0.3-0.8-0.6-1.5-1-2.2
	s-0.6-1.6-1-2.6c-0.1-0.1-0.1-0.3-0.2-0.4l-0.1-0.2c-0.1-0.1-0.1-0.2-0.2-0.4l-1.5-2l-0.1-0.2l-0.1-0.1l-0.1-0.1l-1.7-1.6l-1.1-1.3
	c-0.6-0.6-1.4-1-2.3-1c-0.1,0-0.3,0-0.4,0l-0.5,0.1l0,0c-0.2-0.1-0.4-0.1-0.6-0.1h-0.3h-0.4h-0.3h-0.3l-0.2-0.1l-0.5-0.2
	c-0.3-0.1-0.7-0.2-1.1-0.2h-0.9c-0.8,0-1.6,0.4-2.2,1l-0.2,0.1c-0.9,0.3-1.6,0.9-1.9,1.7l-0.9,2l-0.5-0.3c-0.2-0.1-0.4-0.2-0.6-0.3
	l-0.3-0.1c-0.2-0.1-0.3-0.1-0.5-0.1l-0.8-0.8l-0.9-1.2V78c0-0.3,0-0.6-0.1-0.8l-0.1-0.4c-0.1-0.3-0.2-0.6-0.4-0.8
	c-0.4-0.6-0.8-1.2-1.1-1.9c-0.1-0.1-0.1-0.2-0.2-0.3l-0.1-0.1c-0.1-0.1-0.1-0.2-0.2-0.3l-0.6-0.7c-0.1-0.1-0.3-0.3-0.4-0.4l-0.2-0.2
	c-0.2-0.1-0.3-0.2-0.5-0.3l-0.5-0.2l-0.9-0.8l-0.8-0.8h11.9c1.7,0,3-1.3,3-3v-27h9.7v9.8c0,1.3,0.9,2.5,2.2,2.8l0.2,0.2
	c0.2,0.2,0.4,0.4,0.6,0.5l0.3,0.2c0.2,0.1,0.4,0.3,0.7,0.3l0.3,0.1c0.3,0.1,0.7,0.2,1,0.2h0.4c0.4,0.5,1,0.8,1.6,0.9
	c0.7,0.1,1.4,0.3,2.1,0.5l1.4,0.3c0.2,0.1,0.5,0.1,0.7,0.1h0.4l0.3,0.4c0.8,1.1,2.2,1.6,3.4,1.1l0.8-0.3l1.3,0.3
	c0.2,0.1,0.5,0.1,0.7,0.1h0.4c0.3,0,0.5,0,0.8-0.1l0.4-0.1h0.1l1.2,0.7c0.5,0.3,1,0.4,1.5,0.4c0.5,0,1-0.1,1.4-0.3l1.1-0.6l1-0.1
	c0.1,0,0.3,0,0.4-0.1h0.1c0.1,0,0.2-0.1,0.3-0.1h0.1c0.2,0,0.4,0.1,0.6,0.1h0.1h0.4c0.1,0,0.3,0,0.4,0l2.6,1.6l0.2,0.1L200,59
	l0.2,0.1v8.1c0,1,0.5,1.9,1.3,2.5c0,0.2,0.1,0.4,0.1,0.6l0.1,0.3c0.1,0.2,0.2,0.5,0.3,0.7l0.4,0.6c0.1,0.3,0.1,0.5,0.2,0.8
	s0.1,0.3,0.1,0.5l-0.3,0.6c-0.1,0.1-0.1,0.2-0.1,0.3l-0.1,0.2c0,0.1-0.1,0.2-0.1,0.3l-0.3,0.9c0,0.2-0.1,0.3-0.1,0.5v0.2
	c0,0.2,0,0.4,0,0.5l0.1,1.5v0.2v0.1h2v-0.2C203.9,78.3,203.9,78.2,203.9,78.2z"/>
<path class="st2" d="M189.9,98.7L189.9,98.7l-2.1-0.1v0.1v2l0.4,1c0,0,0,0.1,0,0.1v0.1c0.1,0.6,0.3,1.2,0.4,1.9s0.2,1.3,0.3,1.9
	c0,0,0,0.1,0,0.1c0,0.2,0,0.4,0,0.7v0.3c0,0.5-0.2,0.9-0.5,1.3c-0.3,0.4-0.8,0.6-1.3,0.6h-0.1l-0.1,0.1c0,0,0,0.1-0.1,0.1
	c-0.3,0.4-0.7,0.6-1.2,0.7c-0.1,0-0.2,0-0.4,0c-0.4,0-0.7-0.1-1-0.3l-0.7-0.5c-0.3-0.2-0.6-0.4-0.9-0.7h-0.1l-0.8-0.1h-1.1
	c-0.2,0-0.4,0-0.6-0.1h-0.1c-0.2-0.1-0.3-0.1-0.5-0.2l-1.3-1l-1.6-0.8l-1.2-0.5c-0.3-0.1-0.5-0.2-0.7-0.4c-0.2-0.2-0.3-0.4-0.4-0.7
	l-0.8-1.9l-0.9-1.9c0-0.1-0.1-0.1-0.1-0.2v-0.1c0-0.1,0-0.2,0-0.2l-0.3-1.9l-0.3-1.7l-0.5-0.4c-0.5-0.5-1-1-1.5-1.5l0,0l-0.5-0.7
	c-0.3-0.5-0.7-0.9-1-1.4c-0.1-0.1-0.1-0.2-0.1-0.2c-0.4-0.9-0.8-1.7-1.2-2.7c-0.3-0.8-0.6-1.6-1-2.5l-1.2-1.6l-0.6-0.5
	c-0.4-0.4-0.8-0.8-1.2-1.2l0,0l-0.4-0.4h-0.6l-0.4-0.1l-0.4-0.1h-0.4h-0.1l-0.7,0.1h-0.2c-0.2,0-0.4,0-0.6-0.1l-0.3-0.1
	c-0.2,0.1-0.3,0.2-0.5,0.2h-0.1l-0.8,1.8l-0.2,0.7c0,0.2-0.1,0.3-0.2,0.4c-0.1,0.1-0.2,0.2-0.2,0.3l-0.5,0.6l-0.4,0.6
	c-0.2,0.3-0.4,0.5-0.7,0.7c-0.3,0.1-0.6,0.2-0.9,0.2h-0.7c-0.2,0-0.3,0-0.5-0.1h-0.1c-0.2-0.1-0.4-0.2-0.6-0.3l-1.7-1.3l-0.8-0.5
	l-0.5-0.1c-0.2,0-0.4-0.1-0.6-0.2H149c-0.2-0.1-0.3-0.2-0.5-0.4l-1-1c-0.2-0.1-0.4-0.2-0.5-0.4l-1.9-2.5l-0.1-0.1l-0.1-0.2l0,0
	l-0.1-0.2l-0.2-0.5v-0.1c-0.1-0.1-0.1-0.3-0.1-0.4c0-0.1,0-0.3,0-0.4v-1.5c-0.4-0.6-0.7-1.1-1-1.8l-0.3-0.3l-0.7-0.3l-0.2-0.1h-0.1
	l-0.2-0.2c-0.9-0.8-1.7-1.6-2.8-2.7l-0.5-0.4c-0.5-0.4-0.9-0.8-1.3-1.2l-1.1-1.2l-0.1-0.2v-0.1c0-0.1-0.1-0.1-0.1-0.2v-0.1h-0.1
	c-0.1-0.1-0.3-0.1-0.4-0.2c-0.1-0.1-0.2-0.1-0.3-0.2l-0.7-0.7c-0.2-0.2-0.3-0.3-0.4-0.6c0,0,0-0.1-0.1-0.1c-0.1-0.2-0.1-0.5-0.1-0.7
	v-0.6c0-0.5,0.2-1,0.6-1.4c0.4-0.4,0.9-0.6,1.4-0.6h17.2V36.6v-0.1c0-0.4,0.1-0.7,0.3-1.1c0-0.6,0.4-1,1-1h17.2c0.5,0,1,0.2,1.4,0.6
	c0.4,0.4,0.6,0.9,0.6,1.4V48l0.1,0.1l0.3,0.3c0.4-0.1,0.9-0.1,1.3-0.2h0.2c0.3,0,0.7,0.1,0.9,0.2c0.3,0.2,0.6,0.4,0.8,0.8l0.3,0.5
	c0.5,0.1,0.9,0.2,1.5,0.4l0.7,0.2l0.7-0.2c0.2-0.1,0.4-0.1,0.6-0.1h0.2c0.3,0,0.5,0.1,0.8,0.3l0.9,0.6c0.1,0.1,0.2,0.2,0.4,0.3
	c0.1,0.1,0.2,0.2,0.3,0.3l0.1,0.2h0.2h0.1l2.6,0.4l0.7-0.2c0.2,0,0.3-0.1,0.5-0.1h0.1h0.3l1.4,0.2c0.1,0,0.3,0,0.4,0.1
	c0.1,0,0.2,0.1,0.3,0.2l0.7,0.4l0.6-0.3c0.1-0.1,0.2-0.1,0.4-0.2h0.1h0.3l1.5-0.1l0.8-0.3h0.1c0.2-0.1,0.4-0.1,0.6-0.1h0.1
	c0.2,0,0.4,0,0.5,0.1l0,0l0.3,0.1l0.6-0.2c0.2-0.1,0.4-0.1,0.6-0.1h0.2c0.3,0,0.6,0.1,0.8,0.3l3.7,2.2h1.3c1.1,0,2,0.9,2,2v9.4
	c0.2,0.2,0.3,0.3,0.4,0.6l0.5,1c0.1,0.1,0.1,0.3,0.2,0.4c0,0.1,0.1,0.3,0.1,0.4l0.1,0.8l0.5,0.8c0.1,0.1,0.1,0.2,0.2,0.4
	c0,0.1,0.1,0.3,0.1,0.4c0.1,0.5,0.2,1,0.3,1.4s0.2,1,0.3,1.4v0c0,0,0,0,0,0.1c0,0.2,0,0.4,0,0.5c0,0.2-0.1,0.4-0.1,0.6l-0.1,0.2
	c-0.1,0.5-0.3,1-0.6,1.4l-0.2,0.3l-0.1,0.5l0.1,1l0.2,0.8h2c0-0.1,0-0.3-0.1-0.4l-0.2-0.8v-0.5l0.1-0.1c0.3-0.6,0.6-1.2,0.8-1.8
	v-0.1c0.1-0.3,0.2-0.7,0.2-1c0-0.3,0-0.7,0-1c0,0,0-0.1,0-0.2v-0.1l-0.3-1.4c-0.1-0.4-0.2-0.9-0.3-1.4c-0.1-0.2-0.2-0.5-0.3-0.7
	c-0.1-0.3-0.2-0.5-0.4-0.7l-0.2-0.4v-0.3c0-0.3-0.1-0.6-0.1-0.8c-0.1-0.3-0.2-0.5-0.3-0.8l-0.5-1l-0.2-0.3v-8.8c0-2.2-1.8-4-4-4
	h-0.7l-3.3-1.9c-0.5-0.3-1-0.5-1.6-0.6c-0.2,0-0.3,0-0.5,0c-0.4,0-0.9,0.1-1.3,0.2l0,0c-0.2,0-0.5-0.1-0.7-0.1h-0.1
	c-0.4,0-0.8,0.1-1.2,0.2h-0.1l-0.5,0.2l-1.3,0.1c-0.2,0-0.4,0-0.6,0.1h-0.2l-0.3,0.1l-0.4-0.2c-0.3-0.1-0.6-0.2-0.9-0.2l-1.4-0.2
	c-0.2,0-0.4,0-0.6,0h-0.2c-0.3,0-0.6,0.1-0.9,0.2l-0.3,0.1l-1.9-0.3c-0.2-0.2-0.4-0.4-0.7-0.5l-1-0.6c-0.5-0.3-1-0.5-1.6-0.5h-0.1
	H181c-0.4,0-0.8,0.1-1.2,0.2h-0.2h-0.1l-0.7-0.2c-0.4-0.5-0.8-1-1.4-1.3c-0.5-0.3-1.2-0.5-1.8-0.5v-9.8c0-1-0.4-2.1-1.1-2.8
	c-0.7-0.8-1.8-1.2-2.9-1.2h-17.3c-1.4,0-2.6,1-2.9,2.3c-0.3,0.5-0.4,1.1-0.4,1.7v0.1v25.9h-15.1c-1.1,0-2.1,0.4-2.9,1.2
	c-0.7,0.7-1.1,1.7-1.1,2.8v0.6c0,0.5,0.1,1,0.3,1.4l0.1,0.3c0.2,0.4,0.4,0.7,0.7,1l0.7,0.7c0.1,0.2,0.3,0.3,0.5,0.4
	c0.1,0.1,0.2,0.2,0.3,0.2l0,0c0.1,0.1,0.2,0.2,0.3,0.3l1.1,1.3l0,0l0,0c0.5,0.5,1,0.9,1.5,1.3c0.1,0.1,0.3,0.3,0.4,0.4
	c1.1,1.1,1.9,1.9,2.8,2.7c0.1,0.1,0.3,0.2,0.4,0.3l0.1,0.1c0.1,0.1,0.3,0.2,0.4,0.2l0,0l0.2,0.1c0.2,0.4,0.4,0.7,0.6,1.1v1
	c0,0.3,0,0.5,0.1,0.8c0.1,0.3,0.1,0.5,0.2,0.8l0.1,0.1l0.2,0.4c0,0.1,0.1,0.2,0.2,0.4c0,0,0.1,0.1,0.1,0.1l0.2,0.3l0.1,0.2l2,2.5
	c0.3,0.4,0.6,0.7,1,0.9l0.7,0.7c0.3,0.3,0.6,0.5,0.9,0.7l0.2,0.1c0.4,0.2,0.8,0.3,1.2,0.4l0,0l0.4,0.3l1.6,1.2
	c0.4,0.3,0.7,0.5,1.2,0.6l0.2,0.1c0.3,0.1,0.7,0.1,1,0.1h0.8c0.6,0,1.2-0.2,1.8-0.5c0.6-0.3,1.1-0.8,1.5-1.3l0.4-0.6l0.4-0.5
	c0.2-0.2,0.3-0.4,0.5-0.7c0.2-0.3,0.3-0.6,0.4-0.9l0.2-0.6l0.2-0.5h0.2h0.4l0.7-0.1h0.2c0.2,0.1,0.4,0.1,0.6,0.2
	c0.4,0.4,0.8,0.8,1.2,1.2l0.4,0.4l1,1.2c0.3,0.8,0.6,1.5,0.9,2.3c0.4,1,0.8,1.8,1.2,2.7c0.1,0.2,0.2,0.4,0.3,0.6
	c0.4,0.5,0.7,1,1.1,1.5c0.2,0.2,0.3,0.4,0.5,0.7c0,0.1,0.1,0.1,0.1,0.2c0.5,0.6,1.1,1.2,1.6,1.7l0.2,1.1l0.3,1.8
	c0,0.2,0.1,0.3,0.1,0.5c0,0.1,0,0.1,0.1,0.2c0,0.1,0.1,0.2,0.1,0.3l0.9,1.9c0.3,0.6,0.6,1.2,0.8,1.9c0.2,0.5,0.5,0.9,0.9,1.3
	c0.4,0.4,0.9,0.7,1.4,0.9l1.1,0.4l1.3,0.7l1.1,0.9c0.3,0.2,0.6,0.4,0.9,0.5l0.2,0.1c0.4,0.1,0.8,0.2,1.2,0.2h1.1
	c0.2,0.2,0.5,0.3,0.7,0.5l0.7,0.4c0.6,0.4,1.3,0.6,2.1,0.6c0.2,0,0.5,0,0.7-0.1c0.7-0.1,1.4-0.5,2-1c0.7-0.2,1.3-0.6,1.8-1.2
	c0.6-0.7,1-1.6,1.1-2.5c0-0.1,0-0.2,0-0.2v-0.2c0-0.3,0-0.6,0-0.8c0-0.1,0-0.2,0-0.2c-0.1-0.7-0.2-1.3-0.4-2s-0.3-1.4-0.4-2l0,0l0,0
	v-0.1c0,0,0-0.1-0.1-0.2l-0.2-0.7v-1.5L189.9,98.7z"/>
<polygon class="st3" points="202.3,78.9 217.1,79.3 205.1,87.9 209.4,102.1 197.4,93.4 185.3,101.8 189.8,87.8 178.1,78.8 
	192.9,78.8 197.8,64.9 "/>
</svg>
